# xmcd CD database file
#
# Track frame offsets:
#	150
#	26037
#	42795
#	58651
#	77804
#	97402
#	114647
#	135146
#	154160
#	176283
#	192789
#	228054
#
# Disc length: 3665 seconds
#
# Revision: 0
# Processed by: cddbd v1.5.2PL0 Copyright (c) Steve Scherf et al.
# Submitted via: CDex 1.51
#
DISCID=910e4f0c
DTITLE=L.A. concert jazz orchestra - murdering the classics
DYEAR=2009
DGENRE=Jazz
TTITLE0=Also sprach Zarathustra - West Side Story
TTITLE1=Prologue
TTITLE2=Something's Coming
TTITLE3=Maria
TTITLE4=America
TTITLE5=Tonight
TTITLE6=Cool
TTITLE7=I Feel Pretty
TTITLE8=Taunting Scene
TTITLE9=Somewhere
TTITLE10=Rhapsody in Blue
TTITLE11=Farandole aus der "2nd L'Arlesienne Suite"
EXTD=YEAR: 2009
EXTT0=
EXTT1=
EXTT2=
EXTT3=
EXTT4=
EXTT5=
EXTT6=
EXTT7=
EXTT8=
EXTT9=
EXTT10=
EXTT11=
PLAYORDER=
